<svg width="16" height="16" viewBox="0 0 16 16" fill="none" xmlns="http://www.w3.org/2000/svg">
<g id="Component 1">
<path id="Vector" fill-rule="evenodd" clip-rule="evenodd" d="M7.71578 5.00933C7.71578 3.16672 9.2091 1.6731 11.0509 1.6731C12.132 1.6731 12.9954 2.18453 13.574 2.92673C14.1953 2.7996 14.7796 2.56969 15.3082 2.25604C15.0998 2.90767 14.6588 3.45553 14.0837 3.80223L14.0852 3.8056C14.6492 3.73714 15.1857 3.58718 15.6853 3.36578L15.6841 3.36758C15.3247 3.90591 14.8728 4.38114 14.3534 4.76832C14.3813 4.95646 14.3955 5.14584 14.3955 5.33413C14.3955 9.26619 11.4 13.8395 5.8895 13.8395C4.20186 13.8395 2.63 13.345 1.30691 12.4962C1.059 12.3371 0.986977 12.0072 1.14604 11.7593C1.16009 11.7373 1.17548 11.7169 1.19202 11.6977C1.2864 11.5415 1.4662 11.4462 1.65929 11.469C2.63557 11.5841 3.61159 11.465 4.47186 11.0892C3.61861 10.7129 2.95624 9.98369 2.66904 9.08768C2.61736 8.92646 2.65443 8.74994 2.76661 8.62312C2.7705 8.61873 2.77446 8.61442 2.77848 8.61019C2.09503 8.00869 1.66391 7.12751 1.66391 6.14548V6.10938C1.66391 5.9393 1.75391 5.78192 1.90051 5.69568C1.94869 5.66734 2.00059 5.64807 2.05387 5.63791C1.81938 5.1856 1.68677 4.67178 1.68677 4.12751C1.68677 3.62838 1.68962 2.99934 2.04107 2.43282C2.11985 2.30582 2.24828 2.22838 2.38569 2.21003C2.5878 2.14648 2.81712 2.20762 2.95919 2.38184C4.12325 3.8093 5.80357 4.79551 7.7161 5.05554L7.71578 5.00933ZM5.8895 12.7729C5.04966 12.7729 4.24319 12.633 3.49084 12.3757C4.40566 12.2173 5.28347 11.8569 6.03985 11.2642C6.19978 11.1388 6.26347 10.9264 6.19887 10.7337C6.13428 10.5411 5.9554 10.41 5.75225 10.4064C5.00252 10.3932 4.33846 10.0236 3.92332 9.45963C4.12636 9.44322 4.32476 9.40837 4.51694 9.3564C4.73196 9.29826 4.87873 9.09984 4.87138 8.87721C4.86404 8.65459 4.7045 8.46628 4.48612 8.42243C3.6556 8.25571 2.98561 7.64544 2.73266 6.84981C2.94692 6.90155 3.16928 6.93233 3.39734 6.93979C3.61153 6.9468 3.80442 6.81097 3.87001 6.60694C3.93559 6.40291 3.85797 6.18013 3.6798 6.06101C3.05644 5.64427 2.64677 4.9329 2.64677 4.12751C2.64677 3.94889 2.64928 3.78948 2.65998 3.64496C4.10809 5.11903 6.08951 6.06855 8.29447 6.17956C8.46126 6.18796 8.62236 6.11775 8.72974 5.98985C8.83713 5.86195 8.8784 5.69113 8.84127 5.52832C8.80292 5.36014 8.78245 5.18698 8.78245 5.00933C8.78245 3.75553 9.7985 2.73976 11.0509 2.73976C12.3674 2.73976 13.3288 3.95951 13.3288 5.33413C13.3288 8.80752 10.6884 12.7729 5.8895 12.7729Z" fill="#6E6E6E"/>
</g>
</svg>
